<svg width="399" height="282" viewBox="0 0 399 282" fill="none" xmlns="http://www.w3.org/2000/svg">
<g opacity="0.13" filter="url(#filter0_b_382_12712)">
<path d="M398.973 250.172C377.835 229.791 350.526 217.01 321.336 213.836V263.475C321.336 263.475 346.529 263.858 364.535 270.681C373.635 274.003 382.556 277.797 391.262 282.046C391.262 282.046 384.055 261.961 369.662 252.493C379.082 249.267 389.163 248.469 398.973 250.172Z" fill="white"/>
<path d="M321.256 263.434C321.256 263.434 346.448 263.818 364.455 270.641C373.555 273.963 382.476 277.756 391.182 282.006C388.922 276.202 385.996 270.681 382.461 265.554C364.293 256.389 337.223 249.707 321.256 246.296V263.434Z" fill="#268024"/>
<path d="M398.973 250.172C377.835 229.791 350.526 217.01 321.336 213.836V228.108C337.223 231.964 365.019 239.594 382.925 249.607C388.273 249.006 393.68 249.196 398.973 250.172Z" fill="#0E1114"/>
<g style="mix-blend-mode:multiply">
<path d="M354.725 238.767C355.538 233.595 357.188 228.591 359.61 223.95C358.157 223.324 356.703 222.719 355.209 222.133C344.285 217.943 332.878 215.142 321.256 213.796V263.435C330.915 263.717 340.535 264.784 350.022 266.624C349.84 259.518 352.666 249.809 354.725 238.767Z" fill="#DEE2D6"/>
</g>
<path d="M321.256 235.032V263.434C321.256 263.434 346.105 261.86 345.48 247.85C344.955 236.465 321.256 235.032 321.256 235.032Z" fill="#155424"/>
<path d="M353.757 182.971C338.415 158.182 266.531 146.636 253.471 144.779V220.316C272.197 223.417 290.731 227.582 308.983 232.791C339.848 241.875 344.471 253.26 344.471 253.26C344.471 253.26 364.052 199.605 353.757 182.971Z" fill="white"/>
<path d="M253.471 220.316C272.197 223.417 290.731 227.582 308.983 232.791C339.848 241.875 344.471 253.26 344.471 253.26C344.471 253.26 348.185 243.167 351.516 230.268C324.971 208.931 276.322 197.021 253.471 192.378V220.316Z" fill="#268024"/>
<path d="M353.757 182.971C338.415 158.182 266.531 146.636 253.471 144.779V164.965C274.828 169.002 328.766 181.477 356.421 204.672C357.209 195.83 356.744 187.816 353.757 182.971Z" fill="#0E1114"/>
<g style="mix-blend-mode:multiply">
<path d="M304.925 185.858C305.11 176.175 306.465 166.55 308.962 157.193C290.771 151.681 272.196 147.531 253.389 144.779V220.316C270.324 223.128 287.107 226.793 303.673 231.298C302.967 219.61 304.238 202.976 304.925 185.858Z" fill="#DEE2D6"/>
</g>
<path d="M253.449 186.888V220.034C253.449 220.034 290.491 218.5 291.501 206.61C292.51 194.72 253.449 186.888 253.449 186.888Z" fill="#155424"/>
<path d="M292.53 119.122C277.128 92.2942 204.901 79.819 191.76 77.76V171.627C210.839 174.944 229.59 179.928 247.797 186.524C262.936 192.159 277.414 199.429 290.976 208.205C290.976 208.205 302.886 137.169 292.53 119.122Z" fill="white"/>
<path d="M296.769 148.11C296.769 135.776 295.801 124.815 292.53 119.122C277.128 92.2942 204.901 79.819 191.76 77.76V102.125C211.623 105.597 266.873 117.628 296.769 148.11Z" fill="#0E1114"/>
<path d="M191.76 138.319V171.626C210.839 174.943 229.59 179.928 247.797 186.524C262.936 192.159 277.414 199.428 290.976 208.204C290.976 208.204 292.773 197.485 294.367 183.314C267.863 154.185 217.639 142.558 191.76 138.319Z" fill="#268024"/>
<g style="mix-blend-mode:multiply">
<path d="M244.769 112.905C244.834 105.616 246.039 98.3822 248.342 91.4666C229.9 85.388 210.998 80.8043 191.82 77.76V171.627C209.255 174.672 226.425 179.073 243.175 184.788C240.248 165.813 244.224 130.164 244.769 112.905Z" fill="#DEE2D6"/>
</g>
<path d="M191.76 131.496V171.284C191.76 171.284 229.549 164.097 230.578 151.198C231.608 138.299 191.76 131.496 191.76 131.496Z" fill="#155424"/>
<path d="M5.13564 9.16634C34.2041 0.223757 69.5909 -0.926875 99.5274 0.526547C138.951 2.54519 184.189 8.19738 218.627 29.3931C246.606 61.2271 236.795 112.501 230.739 151.783C168.161 119.869 69.5707 139.894 4.06576 155.437C-0.213758 106.384 -1.22308 58.1184 5.13564 9.16634Z" fill="#0E1114"/>
<path d="M1.07777 49.9837C69.8731 37.8719 173.651 32.5628 235.805 68.9791C240.61 96.3115 235.099 124.189 230.779 151.743C168.201 119.829 69.6107 139.854 4.10573 155.397C0.687414 120.37 -0.324282 85.1494 1.07777 49.9837Z" fill="white"/>
<path d="M1.19922 115.549C69.5908 103.437 171.189 87.8127 234.312 123.623C232.394 143.144 230.779 151.723 230.779 151.723C168.201 119.808 69.611 139.833 4.10607 155.377C4.10607 155.437 2.67283 141.266 1.19922 115.549Z" fill="#268024"/>
<path d="M5.13589 9.1662C24.858 17.8262 74.6377 71.7441 74.6377 71.7441C74.6377 71.7441 18.9838 125.945 4.10643 155.417C-0.213466 106.384 -2.81756 58.9661 5.13589 9.1662Z" fill="#E4312B"/>
<path d="M26.9307 61.9529L28.1822 65.1807C28.2864 65.4498 28.4866 65.6689 28.7426 65.7943C28.9987 65.9198 29.2918 65.9422 29.5634 65.8572L32.8056 64.8407C33.0214 64.7779 33.2507 64.7817 33.4643 64.8519C33.6779 64.922 33.8662 65.0553 34.0052 65.2347C34.1443 65.414 34.2278 65.6315 34.2451 65.8593C34.2624 66.0871 34.2127 66.315 34.1024 66.514L32.4068 69.5239C32.2633 69.7726 32.2169 70.0672 32.277 70.3491C32.3371 70.631 32.4991 70.8795 32.731 71.0454L35.542 73.0057C35.7282 73.1366 35.8716 73.3212 35.9537 73.5358C36.0358 73.7504 36.0528 73.9851 36.0025 74.2096C35.9523 74.4341 35.837 74.6382 35.6717 74.7954C35.5064 74.9526 35.2986 75.0558 35.0751 75.0916L31.7065 75.6163C31.4222 75.6558 31.1634 75.8041 30.9827 76.0309C30.802 76.2578 30.713 76.5462 30.7338 76.8374L30.9802 80.2962C30.9973 80.5265 30.9457 80.7567 30.8323 80.9567C30.7188 81.1568 30.5488 81.3173 30.3443 81.4175C30.1399 81.5176 29.9105 81.5527 29.6862 81.5181C29.4618 81.4835 29.2529 81.3809 29.0868 81.2236L26.5838 78.8704C26.3749 78.6745 26.1012 78.5657 25.817 78.5657C25.5329 78.5657 25.2592 78.6745 25.0503 78.8704L22.5473 81.2236C22.3807 81.3803 22.1717 81.4824 21.9474 81.5167C21.7231 81.551 21.4938 81.5159 21.2894 81.4159C21.0849 81.316 20.9147 81.1558 20.8008 80.9561C20.6869 80.7564 20.6346 80.5265 20.6506 80.2962L20.9003 76.8374C20.921 76.5462 20.832 76.2578 20.6514 76.0309C20.4707 75.8041 20.2119 75.6558 19.9276 75.6163L16.6271 75.0916C16.4026 75.0573 16.1935 74.955 16.0271 74.7978C15.8606 74.6407 15.7446 74.4362 15.6942 74.2109C15.6438 73.9856 15.6613 73.7501 15.7444 73.5351C15.8276 73.3201 15.9725 73.1356 16.1602 73.0057L18.9712 71.0454C19.203 70.8795 19.3651 70.631 19.4252 70.3491C19.4852 70.0672 19.4389 69.7726 19.2954 69.5239L17.5965 66.514C17.4839 66.3136 17.4331 66.0834 17.4506 65.8533C17.4681 65.6232 17.5531 65.4037 17.6947 65.2233C17.8362 65.043 18.0277 64.9101 18.2443 64.8419C18.4609 64.7736 18.6927 64.7732 18.9096 64.8407L22.1518 65.8572C22.4234 65.9414 22.7162 65.9186 22.972 65.7933C23.2279 65.6679 23.4281 65.4493 23.5329 65.1807L24.7844 61.9529C24.8596 61.7238 25.0037 61.5246 25.1963 61.3834C25.3889 61.2422 25.6202 61.1663 25.8576 61.1663C26.0949 61.1663 26.3262 61.2422 26.5188 61.3834C26.7114 61.5246 26.8555 61.7238 26.9307 61.9529Z" fill="white"/>
<g style="mix-blend-mode:multiply">
<path d="M218.727 29.3931H218.566C227.322 67.7171 226.421 107.616 215.941 145.505C221.014 147.315 225.97 149.438 230.778 151.864C236.915 112.501 246.706 61.2271 218.727 29.3931Z" fill="#DEE2D6"/>
</g>
</g>
<defs>
<filter id="filter0_b_382_12712" x="-5.15446" y="-5.15446" width="409.282" height="292.355" filterUnits="userSpaceOnUse" color-interpolation-filters="sRGB">
<feFlood flood-opacity="0" result="BackgroundImageFix"/>
<feGaussianBlur in="BackgroundImageFix" stdDeviation="2.57723"/>
<feComposite in2="SourceAlpha" operator="in" result="effect1_backgroundBlur_382_12712"/>
<feBlend mode="normal" in="SourceGraphic" in2="effect1_backgroundBlur_382_12712" result="shape"/>
</filter>
</defs>
</svg>
