<svg width="57" height="57" viewBox="0 0 57 57" fill="none" xmlns="http://www.w3.org/2000/svg">
<path fill-rule="evenodd" clip-rule="evenodd" d="M55.3447 15.5031L28.4996 31.0061L1.65454 15.5031L28.4996 0L55.3447 15.5031Z" fill="#CE1126"/>
<path fill-rule="evenodd" clip-rule="evenodd" d="M30.155 33.8757V57L36.9835 53.0545V53.0483V43.8422V37.8181L50.1716 30.203V42.7232V45.4332V45.4394L57.0001 41.4939V18.3726L30.155 33.8757Z" fill="black"/>
<path fill-rule="evenodd" clip-rule="evenodd" d="M26.845 33.8757L0 18.3726V41.4908L6.82849 45.4332V30.203L20.0166 37.8181V53.0483L26.845 56.9939V33.8757Z" fill="#007A3D"/>
<path d="M26.183 14.1664C26.2228 13.357 26.2412 12.9554 26.278 12.1461L28.6011 13.6942L31.3932 12.517L30.7802 14.5005L34.17 15.0523L31.1051 15.972L32.5395 17.839L29.3091 17.0113L27.7184 18.7986L26.7622 16.8396L23.3296 17.186L25.3677 15.5735L22.6768 14.2215L26.183 14.1664Z" fill="white"/>
</svg>
