<svg width="99" height="96" viewBox="0 0 99 96" fill="none" xmlns="http://www.w3.org/2000/svg">
<path d="M61.6361 48V60" stroke="#2A8A6E" stroke-width="6.22727" stroke-linecap="round" stroke-linejoin="round"/>
<path d="M49.4999 12V24" stroke="#2A8A6E" stroke-width="6.22727" stroke-linecap="round" stroke-linejoin="round"/>
<path d="M73.7722 48V60" stroke="#2A8A6E" stroke-width="6.22727" stroke-linecap="round" stroke-linejoin="round"/>
<path d="M49.4999 72H85.909" stroke="#2A8A6E" stroke-width="6.22727" stroke-linecap="round" stroke-linejoin="round"/>
<path d="M73.7722 84H85.9086" stroke="#2A8A6E" stroke-width="6.22727" stroke-linecap="round" stroke-linejoin="round"/>
<path d="M25.2268 48H37.3632" stroke="#2A8A6E" stroke-width="6.22727" stroke-linecap="round" stroke-linejoin="round"/>
<path d="M25.2268 24.0447L25.2672 24" stroke="#2A8A6E" stroke-width="6.22727" stroke-linecap="round" stroke-linejoin="round"/>
<path d="M49.4999 48.0447L49.5402 48" stroke="#2A8A6E" stroke-width="6.22727" stroke-linecap="round" stroke-linejoin="round"/>
<path d="M13.0907 48.0447L13.131 48" stroke="#2A8A6E" stroke-width="6.22727" stroke-linecap="round" stroke-linejoin="round"/>
<path d="M49.4999 36.0447L49.5402 36" stroke="#2A8A6E" stroke-width="6.22727" stroke-linecap="round" stroke-linejoin="round"/>
<path d="M49.4999 60.0447L49.5402 60" stroke="#2A8A6E" stroke-width="6.22727" stroke-linecap="round" stroke-linejoin="round"/>
<path d="M61.6361 84.0447L61.6765 84" stroke="#2A8A6E" stroke-width="6.22727" stroke-linecap="round" stroke-linejoin="round"/>
<path d="M49.4999 84.0447L49.5402 84" stroke="#2A8A6E" stroke-width="6.22727" stroke-linecap="round" stroke-linejoin="round"/>
<path d="M85.9091 48.0447L85.9494 48" stroke="#2A8A6E" stroke-width="6.22727" stroke-linecap="round" stroke-linejoin="round"/>
<path d="M85.9091 60.0447L85.9494 60" stroke="#2A8A6E" stroke-width="6.22727" stroke-linecap="round" stroke-linejoin="round"/>
<path d="M73.7722 24.0447L73.8126 24" stroke="#2A8A6E" stroke-width="6.22727" stroke-linecap="round" stroke-linejoin="round"/>
<path d="M37.3634 14.4V33.6C37.3634 34.9255 36.2767 36 34.9362 36H15.518C14.1774 36 13.0907 34.9255 13.0907 33.6V14.4C13.0907 13.0745 14.1774 12 15.518 12H34.9362C36.2767 12 37.3634 13.0745 37.3634 14.4Z" stroke="#2A8A6E" stroke-width="6.22727" stroke-linecap="round" stroke-linejoin="round"/>
<path d="M85.9088 14.4V33.6C85.9088 34.9255 84.8222 36 83.4816 36H64.0634C62.7227 36 61.6361 34.9255 61.6361 33.6V14.4C61.6361 13.0745 62.7227 12 64.0634 12H83.4816C84.8222 12 85.9088 13.0745 85.9088 14.4Z" stroke="#2A8A6E" stroke-width="6.22727" stroke-linecap="round" stroke-linejoin="round"/>
<path d="M25.2268 72.0447L25.2672 72" stroke="#2A8A6E" stroke-width="6.22727" stroke-linecap="round" stroke-linejoin="round"/>
<path d="M37.3634 62.4V81.6C37.3634 82.9256 36.2767 84 34.9362 84H15.518C14.1774 84 13.0907 82.9256 13.0907 81.6V62.4C13.0907 61.0744 14.1774 60 15.518 60H34.9362C36.2767 60 37.3634 61.0744 37.3634 62.4Z" stroke="#2A8A6E" stroke-width="6.22727" stroke-linecap="round" stroke-linejoin="round"/>
</svg>
