<svg xmlns="http://www.w3.org/2000/svg" xmlns:xlink="http://www.w3.org/1999/xlink" width="80" zoomAndPan="magnify" viewBox="0 0 60 60" height="80" preserveAspectRatio="xMidYMid meet" version="1.0"><defs><clipPath id="0c3c8e04a3"><path d="M 5 5.070312 L 53 5.070312 L 53 32 L 5 32 Z M 5 5.070312 " clip-rule="nonzero"/></clipPath><clipPath id="29942d2a80"><path d="M 30 21 L 54.988281 21 L 54.988281 54.570312 L 30 54.570312 Z M 30 21 " clip-rule="nonzero"/></clipPath><clipPath id="9b737d5015"><path d="M 4.738281 21 L 28 21 L 28 54.570312 L 4.738281 54.570312 Z M 4.738281 21 " clip-rule="nonzero"/></clipPath></defs><g clip-path="url(#0c3c8e04a3)"><path fill="#ce1126" d="M 52.800781 18.535156 L 29.335938 31.996094 L 5.871094 18.535156 L 29.335938 5.070312 Z M 52.800781 18.535156 " fill-opacity="1" fill-rule="evenodd"/></g><g clip-path="url(#29942d2a80)"><path fill="#000000" d="M 30.785156 34.488281 L 30.785156 54.570312 L 36.75 51.144531 L 36.75 37.914062 L 48.277344 31.300781 L 48.277344 44.53125 L 54.246094 41.105469 L 54.246094 21.027344 Z M 30.785156 34.488281 " fill-opacity="1" fill-rule="evenodd"/></g><g clip-path="url(#9b737d5015)"><path fill="#007a3d" d="M 27.890625 34.488281 L 4.425781 21.027344 L 4.425781 41.101562 L 10.394531 44.527344 L 10.394531 31.300781 L 21.921875 37.914062 L 21.921875 51.140625 L 27.890625 54.566406 Z M 27.890625 34.488281 " fill-opacity="1" fill-rule="evenodd"/></g><path fill="#ffffff" d="M 27.3125 17.375 C 27.347656 16.671875 27.363281 16.320312 27.394531 15.621094 L 29.425781 16.964844 L 31.867188 15.941406 L 31.332031 17.664062 L 34.292969 18.144531 L 31.617188 18.941406 L 32.867188 20.5625 L 30.046875 19.84375 L 28.65625 21.394531 L 27.820312 19.695312 L 24.820312 19.996094 L 26.601562 18.59375 L 24.246094 17.421875 Z M 27.3125 17.375 " fill-opacity="1" fill-rule="nonzero"/></svg>